<?xml version="1.0" encoding="UTF-8" standalone="no"?>
<svg width="270px" height="277px" viewBox="0 0 270 277" version="1.1" xmlns="http://www.w3.org/2000/svg" xmlns:xlink="http://www.w3.org/1999/xlink">
    <!-- Generator: Sketch 49 (51002) - http://www.bohemiancoding.com/sketch -->
    <title>Fill 11</title>
    <desc>Created with Sketch.</desc>
    <defs></defs>
    <g id="Page-1" stroke="none" stroke-width="1" fill="none" fill-rule="evenodd">
        <g id="Leet-Homepage" transform="translate(-270.000000, -1343.000000)" fill="#E6E5E3">
            <g id="Page-1" transform="translate(398.543227, 1486.703368) rotate(-24.000000) translate(-398.543227, -1486.703368) translate(170.043227, 1255.203368)">
                <path d="M228.058557,312.677397 C183.172787,312.677397 146.784322,275.763216 146.784322,230.227727 C146.784322,184.693476 183.172787,147.779294 228.058557,147.779294 C272.945547,147.779294 309.334012,184.693476 309.334012,230.227727 C309.334012,275.763216 272.945547,312.677397 228.058557,312.677397 M355.46451,250.161484 C350.467313,248.49065 345.048299,250.107068 340.793551,253.936011 L333.171577,251.384619 C334.457754,244.670364 335.138026,237.737206 335.138026,230.640798 C335.138026,198.277815 321.130272,169.23795 298.934869,149.408079 L303.638256,142.899122 C309.292561,143.507598 314.629894,141.630228 317.739883,137.327614 C322.880936,130.213892 320.006238,119.209389 311.318748,112.746192 C302.632477,106.285468 291.420178,106.813556 286.280344,113.928514 C283.169135,118.232365 283.00943,123.96094 285.284319,129.249235 L280.350517,136.074797 C264.990752,127.38547 247.300019,122.426147 228.464526,122.426147 C208.908531,122.426147 190.585071,127.768859 174.826652,137.08645 L170.146428,130.494631 C172.462767,125.228597 172.354265,119.500023 169.280849,115.168963 C164.200752,108.010719 152.995768,107.383692 144.250979,113.767738 C135.509848,120.151784 132.538838,131.132789 137.622593,138.289796 C140.697228,142.622093 146.017492,144.546458 151.679112,143.984979 L156.49222,150.772202 C135.168493,170.55755 121.791026,199.013675 121.791026,230.640798 C121.791026,238.04639 122.527378,245.276366 123.923277,252.26394 L116.141598,254.791835 C111.919765,250.929499 106.515381,249.264849 101.504774,250.89116 C93.2232532,253.581067 89.1745367,264.197234 92.4564231,274.606865 C95.7407478,285.012786 105.118263,291.271921 113.398565,288.580777 C118.41039,286.951992 121.858078,282.413161 123.08208,276.779815 L130.822309,274.266762 C145.913867,308.975838 178.45477,334.118739 217.170546,338.25192 L217.140067,345.652566 C212.21358,348.530457 208.982897,353.231302 208.959734,358.56783 C208.921941,367.388251 217.622841,374.577415 228.397474,374.625647 C239.16845,374.672643 247.933964,367.560158 247.969319,358.7385 C247.992482,353.401972 244.800811,348.672682 239.897487,345.750268 L239.929184,338.232133 C278.875375,334.009906 311.547944,308.528138 326.45907,273.450514 L333.66898,275.860918 C334.845436,281.504157 338.254112,286.073908 343.24887,287.744742 C351.507227,290.50638 360.934727,284.332579 364.310486,273.95263 C367.682587,263.576391 363.722867,252.921885 355.46451,250.161484" id="Fill-11"></path>
            </g>
        </g>
    </g>
</svg>