<?xml version="1.0" encoding="UTF-8" standalone="no"?>
<svg width="268px" height="172px" viewBox="0 0 268 172" version="1.1" xmlns="http://www.w3.org/2000/svg" xmlns:xlink="http://www.w3.org/1999/xlink">
    <!-- Generator: Sketch 49 (51002) - http://www.bohemiancoding.com/sketch -->
    <title>Fill 5</title>
    <desc>Created with Sketch.</desc>
    <defs></defs>
    <g id="Page-1" stroke="none" stroke-width="1" fill="none" fill-rule="evenodd">
        <g id="Leet-Homepage" transform="translate(-327.000000, -1545.000000)" fill="#E6E5E3">
            <g id="Page-1" transform="translate(398.543227, 1486.703368) rotate(-24.000000) translate(-398.543227, -1486.703368) translate(170.043227, 1255.203368)">
                <path d="M328.883229,382.032156 C328.933161,388.434471 326.342795,394.119361 321.729581,397.529303 C318.838407,399.665473 315.331,400.796752 311.589766,400.796752 C304.398365,400.796752 297.243499,396.787095 292.450044,390.071293 C288.902448,385.105069 287.102466,379.255382 287.385008,373.603948 C287.680945,367.653896 290.217725,362.623239 294.526477,359.43757 C297.409127,357.306356 300.905573,356.180034 304.640717,356.180034 C306.835282,356.180034 309.043243,356.557953 311.228065,357.302639 L313.691775,355.479955 L291.306483,324.133762 C277.373067,333.806004 261.169579,340.334706 243.68126,342.74843 L243.676389,343.749605 C248.780396,347.494098 251.75682,352.981974 251.731245,358.780859 C251.687403,369.599248 241.325939,378.399179 228.63473,378.399179 L228.511727,378.399179 C215.7511,378.343421 205.409122,369.450559 205.4554,358.578889 C205.480975,352.778765 208.501242,347.31691 213.635695,343.618262 L213.639349,342.769494 C194.834535,340.199646 177.509407,332.872979 162.890342,321.996353 L138.348239,356.364657 L131.415022,351.24107 C131.991064,345.490509 130.120448,340.07326 125.867717,336.92972 C118.840725,331.735505 108.016479,334.705575 101.692187,343.563743 C95.3654585,352.421911 95.935412,363.812754 102.961186,369.006969 C107.213916,372.150509 112.856213,372.286808 118.052777,369.953624 L124.985994,375.07845 L94.7175625,417.466067 C175.143126,476.914547 278.511756,477.628255 359.495094,419.622062 L331.350592,380.206994 L328.883229,382.032156 Z" id="Fill-5"></path>
            </g>
        </g>
    </g>
</svg>