<?xml version="1.0" encoding="UTF-8" standalone="no"?>
<svg width="261px" height="157px" viewBox="0 0 261 157" version="1.1" xmlns="http://www.w3.org/2000/svg" xmlns:xlink="http://www.w3.org/1999/xlink">
    <!-- Generator: Sketch 49 (51002) - http://www.bohemiancoding.com/sketch -->
    <title>Fill 9</title>
    <desc>Created with Sketch.</desc>
    <defs></defs>
    <g id="Page-1" stroke="none" stroke-width="1" fill="none" fill-rule="evenodd">
        <g id="Leet-Homepage" transform="translate(-307.000000, -1255.000000)" fill="#FFB000">
            <g id="Page-1" transform="translate(398.543227, 1486.703368) rotate(-24.000000) translate(-398.543227, -1486.703368) translate(170.043227, 1255.203368)">
                <path d="M398.16055,183.937309 L395.507547,175.706886 L445.063634,159.468881 C414.266583,63.8876215 330.842898,1.88919952 231.567126,0.399474347 L231.567126,48.8438596 L234.190827,48.8438596 C237.858392,43.6667568 243.253523,40.6368282 248.969748,40.6368282 C259.681872,40.6368282 268.397834,51.1301568 268.397834,64.029207 C268.397834,76.9270259 259.681872,87.4215857 248.969748,87.4215857 C243.253523,87.4215857 237.858392,84.3916571 234.190827,79.2133231 L231.567126,79.2133231 L231.567126,118.480509 C248.828125,119.041926 265.089211,123.567736 279.511632,131.159178 L280.675144,129.558647 C278.7034,123.516026 279.470122,117.336745 282.850777,112.687817 C286.169167,108.121379 291.643655,105.501432 297.870215,105.501432 C303.106629,105.501432 308.496876,107.353124 313.043485,110.71547 C323.358818,118.345079 326.596629,131.638106 320.26141,140.349921 C316.950346,144.904047 311.480741,147.515376 305.25174,147.515376 C305.15651,147.515376 305.060059,147.515376 304.963609,147.514144 L304.095553,148.708387 C317.676778,161.490475 328.104433,177.636141 334.04164,195.846493 L373.831796,182.808319 L376.483577,191.039974 C372.686597,195.319548 371.066471,200.787209 372.695143,205.839963 C375.385994,214.189811 385.88324,218.235461 396.144854,214.871884 C406.405247,211.51323 412.540239,202.015925 409.85061,193.664845 C408.221937,188.61086 403.726606,185.148788 398.16055,183.937309" id="Fill-9"></path>
            </g>
        </g>
    </g>
</svg>