<?xml version="1.0" encoding="UTF-8" standalone="no"?>
<svg width="198px" height="231px" viewBox="0 0 198 231" version="1.1" xmlns="http://www.w3.org/2000/svg" xmlns:xlink="http://www.w3.org/1999/xlink">
    <!-- Generator: Sketch 49 (51002) - http://www.bohemiancoding.com/sketch -->
    <title>Fill 1</title>
    <desc>Created with Sketch.</desc>
    <defs></defs>
    <g id="Page-1" stroke="none" stroke-width="1" fill="none" fill-rule="evenodd">
        <g id="Leet-Homepage" transform="translate(-168.000000, -1275.000000)" fill="#FFB000">
            <g id="Page-1" transform="translate(398.543227, 1486.703368) rotate(-24.000000) translate(-398.543227, -1486.703368) translate(170.043227, 1255.203368)">
                <path d="M86.8480688,177.583101 L85.9564871,180.352907 L123.144862,192.542519 C129.01169,176.36414 138.443621,161.919202 150.47814,150.172512 L149.406774,148.671018 L149.308933,148.671018 C142.987141,148.671018 137.45909,146.004849 134.142259,141.357251 C131.014997,136.979847 130.149098,131.416794 131.706003,125.694586 C133.183411,120.259844 136.70571,115.300103 141.624697,111.727116 C146.149871,108.442829 151.49447,106.634128 156.676406,106.634128 C162.998197,106.634128 168.531141,109.306466 171.856533,113.966402 C175.20027,118.652247 175.914514,124.849456 173.889192,130.887509 L174.786889,132.14595 C190.672698,123.408416 208.882246,118.43387 228.251216,118.43387 L228.251216,75.4580833 L236.543293,75.4580833 C239.411275,80.4326297 244.074651,83.6823705 249.353206,83.6823705 C258.075786,83.6823705 265.146066,74.8449014 265.146066,63.9421073 C265.146066,53.0393132 258.075786,44.2018441 249.353206,44.2018441 C244.074651,44.2018441 239.411275,47.4515849 236.543293,52.4261313 L228.251216,52.4261313 L228.251216,0.14281043 C128.417302,0.14281043 44.0215711,61.1204834 11.8806007,156.073617 L57.2644337,170.949139 L58.1560154,168.179333 C54.4013434,163.0518 53.2076757,156.928617 54.9761629,151.435889 C57.4809082,143.661926 65.2067267,138.639263 74.6594497,138.639263 C77.4870724,138.639263 80.3232562,139.099458 83.0921739,140.006276 C95.2771239,143.999978 102.492943,155.62576 99.1773353,165.921541 C97.4076251,171.415503 92.8751123,175.660893 86.8480688,177.583101" id="Fill-1"></path>
            </g>
        </g>
    </g>
</svg>