<?xml version="1.0" encoding="UTF-8" standalone="no"?>
<svg width="145px" height="271px" viewBox="0 0 145 271" version="1.1" xmlns="http://www.w3.org/2000/svg" xmlns:xlink="http://www.w3.org/1999/xlink">
    <!-- Generator: Sketch 49 (51002) - http://www.bohemiancoding.com/sketch -->
    <title>Fill 7</title>
    <desc>Created with Sketch.</desc>
    <defs></defs>
    <g id="Page-1" stroke="none" stroke-width="1" fill="none" fill-rule="evenodd">
        <g id="Leet-Homepage" transform="translate(-482.000000, -1335.000000)" fill="#E6E5E3">
            <g id="Page-1" transform="translate(398.543227, 1486.703368) rotate(-24.000000) translate(-398.543227, -1486.703368) translate(170.043227, 1255.203368)">
                <path d="M399.626939,177.333684 L400.533664,180.151488 C406.553241,182.074909 411.081976,186.32694 412.850211,191.827898 C414.501134,196.968136 413.644512,202.537037 410.436759,207.514212 C407.389089,212.240613 402.537746,215.884858 396.777233,217.77616 C394.011845,218.685368 391.176803,219.146149 388.352759,219.146149 C378.907914,219.146149 371.188534,214.115855 368.687099,206.334465 C366.918863,200.833507 368.111536,194.703763 371.863079,189.568465 L370.957576,186.749426 L334.563946,198.705021 C337.484528,208.790315 339.065797,219.452512 339.065797,230.492723 C339.065797,236.828768 338.537892,243.040045 337.545628,249.093198 L339.101235,249.610804 C342.586381,247.03142 346.565216,245.630547 350.498837,245.630547 C352.274405,245.630547 354.02431,245.914675 355.699673,246.473047 C360.775865,248.162989 364.714374,252.154364 366.786887,257.712147 C368.755531,262.991979 368.795857,269.101958 366.899311,274.916691 C363.637791,284.914276 355.198653,291.896403 346.37825,291.896403 C344.596573,291.896403 342.840558,291.612276 341.159084,291.052668 C335.72729,289.241663 331.541937,284.644973 329.664944,278.552289 L328.627465,278.206394 C320.606251,295.590062 308.345916,310.574705 293.179663,321.786627 L317.761433,355.990649 L310.708044,361.170418 C305.493766,358.844278 299.832236,358.97893 295.565009,362.112981 C288.515286,367.291515 287.944611,378.649207 294.292906,387.479399 C300.637535,396.312061 311.499901,399.27193 318.549624,394.094631 C322.818073,390.96058 324.695066,385.559685 324.11706,379.827719 L331.170449,374.646714 L361.586051,416.968138 C442.285769,357.69665 475.008509,258.193928 445.708593,162.197095 L399.626939,177.333684 Z" id="Fill-7"></path>
            </g>
        </g>
    </g>
</svg>