<?xml version="1.0" encoding="UTF-8" standalone="no"?>
<svg width="202px" height="246px" viewBox="0 0 202 246" version="1.1" xmlns="http://www.w3.org/2000/svg" xmlns:xlink="http://www.w3.org/1999/xlink">
    <!-- Generator: Sketch 49 (51002) - http://www.bohemiancoding.com/sketch -->
    <title>Fill 3</title>
    <desc>Created with Sketch.</desc>
    <defs></defs>
    <g id="Page-1" stroke="none" stroke-width="1" fill="none" fill-rule="evenodd">
        <g id="Leet-Homepage" transform="translate(-170.000000, -1463.000000)" fill="#E6E5E3">
            <g id="Page-1" transform="translate(398.543227, 1486.703368) rotate(-24.000000) translate(-398.543227, -1486.703368) translate(170.043227, 1255.203368)">
                <path d="M128.097636,277.811246 L126.498684,278.327675 C124.571146,284.390481 120.347176,288.939742 114.900478,290.701025 C113.261216,291.231012 111.55355,291.49847 109.822675,291.49847 C100.943543,291.49847 92.5078178,284.460735 89.3099134,274.38112 C85.4108641,262.081722 90.5424136,249.394078 100.749323,246.097065 C102.381256,245.569543 104.082815,245.302084 105.805139,245.302084 C109.787251,245.302084 113.804787,246.734282 117.310511,249.371892 L118.960766,248.83944 C117.876068,242.535059 117.305625,236.053193 117.305625,229.436982 C117.305625,217.125259 119.267365,205.276967 122.881803,194.185446 L82.3363318,180.89263 L84.9760077,172.697551 C90.5448566,171.483511 95.0436657,168.018874 96.6731556,162.958114 C99.3653563,154.599108 93.2260638,145.093852 82.9605217,141.72905 C72.6949796,138.361783 62.1912438,142.41187 59.4990431,150.772109 C57.8695532,155.830404 59.4904925,161.304061 63.2893783,165.587096 L60.6497024,173.783408 L11.8053151,157.767938 C-19.0084122,253.454025 12.3623221,353.169247 91.8506473,413.285805 L120.035692,374.143177 L117.659862,372.401615 C115.4697,373.143597 113.25633,373.517053 111.053954,373.517053 C107.307593,373.517053 103.800647,372.396685 100.909341,370.276737 C96.5864286,367.107907 94.0432517,362.103843 93.7452041,356.185243 C93.4618146,350.563682 95.2672014,344.746149 98.8266719,339.803712 C103.635744,333.124642 110.812095,329.137414 118.022649,329.137414 C121.775118,329.137414 125.293057,330.261479 128.192914,332.386358 C132.81876,335.777042 135.418126,341.433114 135.368044,347.802819 L137.746317,349.545614 L160.252578,318.287469 C146.655987,307.550916 135.592801,293.703463 128.097636,277.811246" id="Fill-3"></path>
            </g>
        </g>
    </g>
</svg>