<?xml version="1.0" encoding="UTF-8" standalone="no"?>
<svg width="94px" height="75px" viewBox="0 0 94 75" version="1.1" xmlns="http://www.w3.org/2000/svg" xmlns:xlink="http://www.w3.org/1999/xlink">
    <!-- Generator: Sketch 49 (51002) - http://www.bohemiancoding.com/sketch -->
    <title>Logo</title>
    <desc>Created with Sketch.</desc>
    <defs></defs>
    <g id="Page-1" stroke="none" stroke-width="1" fill="none" fill-rule="evenodd">
        <g id="Leet-Homepage" transform="translate(-356.000000, -1452.000000)" fill="#FFFFFF">
            <path d="M380.2612,1462 L380.314604,1497.24342 C380.319256,1499.91995 382.386951,1502.08655 384.9361,1502.08655 L394,1502.08655 L394,1527 L380.851879,1527 C367.182764,1527 356,1515.26914 356,1500.93006 L356,1452.73055 L356,1452 L380.299999,1452 L380.299999,1462 L380.2612,1462 Z M414.279172,1452 C428.017103,1452 440.477241,1460.725 446.190897,1472.86818 C448.413241,1477.58864 450,1482.98636 450,1488.48864 L450,1488.75682 C450,1508.40455 433.36,1527 414.279172,1527 L399.241379,1527 L399.241379,1502 L414.058483,1502 C420.994759,1502 426.615724,1496.64091 426.615724,1489.5 C426.615724,1482.35682 420.994759,1477 414.058483,1477 L408.068966,1477 L408.068966,1497.45455 L386,1497.45455 L386,1452 L414.279172,1452 Z" id="Logo"></path>
        </g>
    </g>
</svg>